HIERARCHY
ROOT Hips
{
	OFFSET -0.001795 -0.223333 0.028219
	CHANNELS 6 Xposition Yposition Zposition Zrotation Yrotation Xrotation 
	JOINT LeftUpLeg
	{
		OFFSET 0.069520 -0.091406 -0.006815
		CHANNELS 3 Zrotation Yrotation Xrotation
		JOINT LeftLeg
		{
			OFFSET 0.034277 -0.375199 -0.004496
			CHANNELS 3 Zrotation Yrotation Xrotation
			JOINT LeftFoot
			{
				OFFSET -0.013596 -0.397961 -0.043693
				CHANNELS 3 Zrotation Yrotation Xrotation
				JOINT LeftToe
				{
					OFFSET 0.026358 -0.055791 0.119288
					CHANNELS 3 Zrotation Yrotation Xrotation
					End Site
					{
						OFFSET 0.000000 0.000000 0.000000
					}
				}
			}
		}
	}
	JOINT RightUpLeg
	{
		OFFSET -0.067670 -0.090522 -0.004320
		CHANNELS 3 Zrotation Yrotation Xrotation
		JOINT RightLeg
		{
			OFFSET -0.038290 -0.382569 -0.008850
			CHANNELS 3 Zrotation Yrotation Xrotation
			JOINT RightFoot
			{
				OFFSET 0.015774 -0.398415 -0.042312
				CHANNELS 3 Zrotation Yrotation Xrotation
				JOINT RightToe
				{
					OFFSET -0.025372 -0.048144 0.123348
					CHANNELS 3 Zrotation Yrotation Xrotation
					End Site
					{
						OFFSET 0.000000 0.000000 0.000000
					}
				}
			}
		}
	}
	JOINT Spine
	{
		OFFSET -0.002533 0.108963 -0.026696
		CHANNELS 3 Zrotation Yrotation Xrotation
		JOINT Spine1
		{
			OFFSET 0.005487 0.135180 0.001092
			CHANNELS 3 Zrotation Yrotation Xrotation
			JOINT Spine2
			{
				OFFSET 0.001457 0.052922 0.025425
				CHANNELS 3 Zrotation Yrotation Xrotation
				JOINT Neck
				{
					OFFSET -0.002778 0.213870 -0.042857
					CHANNELS 3 Zrotation Yrotation Xrotation
					JOINT Head
					{
						OFFSET 0.005152 0.064970 0.051349
						CHANNELS 3 Zrotation Yrotation Xrotation
						End Site
						{
							OFFSET 0.000000 0.000000 0.000000
						}
					}
				}
				JOINT LeftShoulder
				{
					OFFSET 0.078845 0.121749 -0.034090
					CHANNELS 3 Zrotation Yrotation Xrotation
					JOINT LeftArm
					{
						OFFSET 0.090977 0.030469 -0.008868
						CHANNELS 3 Zrotation Yrotation Xrotation
						JOINT LeftForeArm
						{
							OFFSET 0.259612 -0.012772 -0.027456
							CHANNELS 3 Zrotation Yrotation Xrotation
							JOINT LeftHand
							{
								OFFSET 0.249234 0.008986 -0.001171
								CHANNELS 3 Zrotation Yrotation Xrotation
								End Site
								{
									OFFSET 0.000000 0.000000 0.000000
								}
							}
						}
					}
				}
				JOINT RightShoulder
				{
					OFFSET -0.081759 0.118833 -0.038615
					CHANNELS 3 Zrotation Yrotation Xrotation
					JOINT RightArm
					{
						OFFSET -0.096012 0.032551 -0.009143
						CHANNELS 3 Zrotation Yrotation Xrotation
						JOINT RightForeArm
						{
							OFFSET -0.253742 -0.013329 -0.021401
							CHANNELS 3 Zrotation Yrotation Xrotation
							JOINT RightHand
							{
								OFFSET -0.255298 0.007772 -0.005559
								CHANNELS 3 Zrotation Yrotation Xrotation
								End Site
								{
									OFFSET 0.000000 0.000000 0.000000
								}
							}
						}
					}
				}
			}
		}
	}
}
MOTION
Frames: 10
Frame Time: 0.050000
0.000000 0.964362 0.000000 -1.586865 1.818553 5.216662 4.403318 -0.196332 -1.446512 -2.366409 0.344540 -8.000865 7.509582 17.137622 17.611123 0.000000 0.000000 0.000000 0.387736 0.327729 -3.244212 -0.203785 -0.099380 -2.937658 -4.437966 -13.742156 17.207376 0.000000 0.000000 0.000000 4.370921 0.125436 -3.056228 -3.247365 1.481268 -13.741642 -3.348276 2.584884 15.501956 8.254683 -3.361518 -18.790410 0.000000 0.000000 0.000000 -10.212934 -9.778228 3.050080 -21.559331 -9.819258 -1.474517 18.086955 -2.363282 -0.300175 0.000000 0.000000 0.000000 16.899533 -2.102916 -1.456715 29.740337 10.686586 -1.667980 -19.809426 9.117924 -0.604872 0.000000 0.000000 0.000000 
0.000113 0.962757 0.002041 -2.153287 1.196899 6.011496 4.923907 -0.238139 -2.106955 -2.263408 0.346308 -7.982632 8.034180 17.777059 17.340654 0.000000 0.000000 0.000000 0.731536 0.396413 -3.925699 -0.299892 -0.088288 -2.846284 -3.384533 -11.945260 16.301016 0.000000 0.000000 0.000000 4.762146 0.154851 -3.526577 -3.226814 1.449835 -14.024156 -3.351748 4.160651 14.845126 8.964368 -3.320553 -20.463348 0.000000 0.000000 0.000000 -10.218383 -9.984917 2.941410 -23.762345 -10.851613 -1.330430 17.189544 -2.767173 -0.356840 0.000000 0.000000 0.000000 18.875486 -3.986351 -2.352403 32.089819 10.809192 -1.755976 -21.897448 11.289851 -0.937526 0.000000 0.000000 0.000000 
0.000261 0.961802 0.003863 -2.304791 1.086462 5.802614 5.390003 -0.218160 -1.607919 -2.824275 0.368627 -8.210040 8.123275 17.868727 17.060035 0.000000 0.000000 0.000000 0.746620 0.352908 -3.517636 -0.284090 -0.101278 -3.120528 -3.077165 -11.455294 16.408149 0.000000 0.000000 0.000000 5.311818 0.133140 -3.215338 -3.517950 1.526809 -15.796435 -3.669195 4.945029 16.734715 10.742832 -4.159175 -21.635523 0.000000 0.000000 0.000000 -10.120834 -11.207262 3.412631 -26.205390 -10.275977 -1.597739 17.851230 -3.418133 -0.471110 0.000000 0.000000 0.000000 20.330156 -3.340009 -1.833963 33.391588 10.604127 -2.034028 -22.242117 11.576580 -0.949623 0.000000 0.000000 0.000000 
0.000317 0.962636 0.005757 -2.725346 1.415011 6.115248 6.050757 -0.264577 -2.390027 -3.107691 0.369426 -7.336259 8.041655 17.776401 16.887806 0.000000 0.000000 0.000000 1.296303 0.419778 -4.127644 0.056900 -0.111630 -2.703171 -3.960151 -13.011710 17.187397 0.000000 0.000000 0.000000 5.081047 0.217222 -4.280729 -3.296810 1.469941 -15.317453 -3.420083 4.638606 16.624727 10.161208 -3.683657 -22.340176 0.000000 0.000000 0.000000 -11.345474 -11.437929 3.486966 -28.692272 -10.010351 -1.744280 18.692833 -4.044799 -0.571293 0.000000 0.000000 0.000000 21.832738 -3.282504 -1.913882 35.909477 10.292685 -2.160337 -23.420098 12.532592 -1.154575 0.000000 0.000000 0.000000 
0.000230 0.962900 0.007685 -2.732444 1.387174 6.046765 6.305618 -0.266655 -2.425724 -3.582497 0.387942 -6.772721 8.058172 17.772936 16.472731 0.000000 0.000000 0.000000 1.214174 0.423819 -4.164149 -0.081704 -0.084932 -2.327723 -3.539309 -12.327164 17.291712 0.000000 0.000000 0.000000 4.648637 0.199614 -4.092460 -2.721002 1.288047 -15.638835 -3.583332 4.873108 16.313525 10.640981 -3.984240 -22.028208 0.000000 0.000000 0.000000 -12.579443 -12.109508 3.695887 -30.267260 -9.318344 -1.911606 18.541213 -4.801877 -0.666175 0.000000 0.000000 0.000000 23.277865 -3.334882 -1.951021 37.971931 9.695500 -2.396219 -23.447845 14.123582 -1.384925 0.000000 0.000000 0.000000 
0.000035 0.962739 0.009612 -2.845361 1.848874 6.178844 6.471209 -0.296593 -3.030458 -3.707413 0.388480 -5.688616 8.015918 17.704438 15.572834 0.000000 0.000000 0.000000 1.097043 0.461517 -4.494739 0.175454 -0.091015 -1.906765 -3.484429 -12.222681 17.714668 0.000000 0.000000 0.000000 4.329259 0.217536 -4.406623 -2.522568 1.235996 -15.311207 -3.421415 4.112600 16.200979 10.627861 -3.798928 -23.267649 0.000000 0.000000 0.000000 -13.736776 -12.120986 3.758434 -32.605571 -9.367259 -2.029735 18.216205 -5.089431 -0.658177 0.000000 0.000000 0.000000 24.037515 -3.305578 -2.122647 41.139530 10.040052 -2.320838 -23.525965 14.645704 -1.468592 0.000000 0.000000 0.000000 
-0.000232 0.962433 0.011436 -2.922563 1.932235 6.062263 6.653489 -0.300984 -3.152634 -4.055563 0.407973 -5.026355 8.328484 18.129837 15.126181 0.000000 0.000000 0.000000 1.363554 0.469873 -4.550992 0.090529 -0.076268 -1.725678 -3.986501 -13.113817 18.289924 0.000000 0.000000 0.000000 4.042345 0.196128 -4.139203 -2.087273 1.101580 -15.266624 -3.460895 3.996249 15.903073 10.641771 -3.874476 -22.890161 0.000000 0.000000 0.000000 -14.961194 -12.242089 3.783641 -34.513451 -8.828599 -2.229304 17.249987 -5.890099 -0.696774 0.000000 0.000000 0.000000 25.183057 -3.142768 -2.107633 43.812189 9.217447 -2.634959 -23.771743 15.813195 -1.659434 0.000000 0.000000 0.000000 
-0.000446 0.962307 0.013242 -2.994842 1.972221 6.216892 6.893191 -0.319434 -3.636718 -4.403151 0.432768 -4.145607 8.450499 18.279710 14.579151 0.000000 0.000000 0.000000 1.316219 0.480909 -4.654742 0.452772 -0.105228 -1.597487 -4.145337 -13.348217 18.124731 0.000000 0.000000 0.000000 4.024076 0.200407 -4.230327 -2.038896 1.086470 -15.259833 -3.454319 4.042414 15.730043 10.924756 -3.946590 -23.292480 0.000000 0.000000 0.000000 -16.007997 -12.331869 3.777670 -36.101295 -8.262271 -2.436234 16.316147 -6.651140 -0.725566 0.000000 0.000000 0.000000 26.137317 -3.596613 -2.438341 46.323854 8.766882 -2.857129 -23.350299 16.587049 -1.710289 0.000000 0.000000 0.000000 
-0.000570 0.962575 0.014761 -3.025846 1.893735 6.162676 7.229380 -0.319960 -3.734439 -5.000191 0.478114 -3.689792 8.615542 18.509200 14.551875 0.000000 0.000000 0.000000 1.456152 0.467519 -4.529006 0.556743 -0.113367 -1.552448 -4.506161 -13.945225 18.064345 0.000000 0.000000 0.000000 3.961085 0.194817 -4.144606 -2.023788 1.080086 -15.298468 -3.362995 4.105437 15.636038 11.069824 -4.024603 -23.302971 0.000000 0.000000 0.000000 -16.775062 -12.144772 3.655677 -37.603305 -7.765240 -2.651941 15.814620 -7.785974 -0.810793 0.000000 0.000000 0.000000 26.837999 -3.805613 -2.627669 47.919331 7.659886 -3.306963 -22.825831 17.308695 -1.757038 0.000000 0.000000 0.000000 
-0.000634 0.962425 0.016033 -3.016302 1.867465 6.260663 7.398742 -0.325873 -3.923189 -5.322879 0.506359 -3.291998 8.616772 18.494197 14.235043 0.000000 0.000000 0.000000 1.274766 0.475075 -4.609496 0.930498 -0.145485 -1.457339 -4.598790 -14.090015 17.962854 0.000000 0.000000 0.000000 3.904024 0.209915 -4.372483 -1.960601 1.058577 -15.195231 -3.354197 4.210705 15.585209 11.254811 -4.085775 -23.465630 0.000000 0.000000 0.000000 -17.337135 -12.045839 3.561708 -38.484165 -7.375652 -2.802508 15.227329 -8.660806 -0.857706 0.000000 0.000000 0.000000 27.385015 -4.039759 -2.789941 49.309366 6.940760 -3.642644 -22.286731 17.994899 -1.781352 0.000000 0.000000 0.000000 
